<?xml version="1.0" standalone="no"?>
<!DOCTYPE svg PUBLIC "-//W3C//DTD SVG 20010904//EN"
 "http://www.w3.org/TR/2001/REC-SVG-20010904/DTD/svg10.dtd">
<svg version="1.0" xmlns="http://www.w3.org/2000/svg"
 width="85" height="85" viewBox="0 0 3500.000000 3500.000000"
 preserveAspectRatio="xMidYMid meet">

<g transform="translate(0.000000,3500.000000) scale(0.100000,-0.100000)"
fill="#000000" stroke="none">
<path d="M9970 30374 c-9 -11 -23 -35 -32 -54 -8 -19 -1135 -1995 -2503 -4390
-1368 -2395 -3120 -5462 -3892 -6815 -773 -1353 -1418 -2481 -1434 -2506 -30
-47 -36 -78 -20 -94 5 -6 178 -298 384 -650 206 -352 468 -800 582 -995 217
-370 703 -1200 1060 -1810 114 -195 315 -537 445 -760 248 -423 1012 -1729
1713 -2925 225 -385 609 -1040 852 -1455 243 -415 588 -1005 767 -1310 179
-305 435 -742 568 -970 134 -228 379 -647 545 -930 166 -283 451 -771 635
-1085 183 -313 342 -585 354 -602 l21 -33 590 0 c325 0 1726 7 3115 15 3164
19 4396 19 7560 0 1389 -8 2791 -15 3115 -15 l590 0 21 33 c12 17 171 289 354
602 184 314 469 802 635 1085 166 283 411 702 545 930 133 228 389 665 568
970 179 305 524 895 767 1310 243 415 627 1070 852 1455 729 1245 1470 2510
1713 2925 130 223 383 655 562 960 179 305 419 715 533 910 114 195 300 513
413 705 113 193 373 638 579 990 206 352 379 644 384 650 16 16 10 47 -20 94
-16 25 -661 1153 -1434 2506 -772 1353 -2524 4420 -3892 6815 -1368 2395
-2496 4374 -2506 4396 -10 23 -26 47 -34 54 -22 18 -463 8 -1090 -24 -264 -14
-606 -31 -760 -38 -404 -17 -1316 -14 -2180 7 -658 17 -1086 19 -3495 19
-2409 0 -2837 -2 -3495 -19 -864 -21 -1776 -24 -2180 -7 -154 7 -496 24 -760
38 -264 13 -615 27 -780 31 -286 5 -301 5 -315 -13z m1115 -118 c264 -14 606
-31 760 -37 406 -18 1287 -16 2170 6 594 15 1019 19 1860 17 600 -1 1331 -2
1625 -2 294 0 1026 1 1625 2 841 2 1266 -2 1860 -17 883 -22 1764 -24 2170 -6
154 6 496 23 760 37 264 13 606 27 761 31 l281 6 1942 -3399 1941 -3399 -97
-3 c-147 -5 -4124 16 -4130 21 -2 3 30 106 72 229 52 151 75 233 72 253 -6 37
-674 1824 -689 1842 -6 7 -29 13 -52 13 -51 0 -1445 -175 -1466 -184 -8 -3
-204 -319 -435 -702 -231 -383 -518 -859 -638 -1057 -120 -199 -224 -367 -230
-374 -9 -9 -435 -9 -1777 -2 -1460 8 -2757 5 -7508 -16 -3159 -15 -5756 -25
-5773 -23 l-30 3 1942 3399 1942 3399 281 -6 c155 -4 497 -18 761 -31z m12875
-4521 c0 -3 -159 -215 -353 -473 l-353 -467 -209 -205 c-116 -113 -367 -358
-560 -545 -348 -338 -350 -340 -352 -305 -1 19 -10 250 -19 512 l-16 477 252
418 c139 230 254 419 255 421 3 3 1298 168 1338 171 9 1 17 -1 17 -4z m88
-130 c22 -60 167 -448 321 -862 155 -414 281 -759 281 -767 0 -8 -217 -201
-482 -428 l-483 -413 -160 -48 c-297 -89 -789 -238 -970 -294 -132 -40 -199
-66 -250 -98 -112 -69 -915 -565 -958 -592 l-38 -24 49 93 c88 165 779 1483
783 1493 2 6 168 170 369 365 201 194 457 445 570 556 l206 201 354 471 c195
259 358 468 361 464 4 -4 25 -56 47 -117z m-1958 -1436 c13 -358 16 -499 8
-514 -6 -11 -187 -319 -401 -685 -215 -366 -408 -694 -429 -730 -47 -80 -46
-97 -13 285 13 160 36 435 50 613 l27 322 365 605 c201 333 368 603 370 601 3
-3 13 -226 23 -497z m2530 -283 c0 -10 -683 -2032 -689 -2037 -7 -8 -259 -16
-711 -25 l-325 -6 -232 159 c-128 87 -232 160 -232 163 -1 3 161 185 358 404
l359 399 270 82 c148 45 280 90 294 101 28 23 479 407 722 616 153 131 186
157 186 144z m-3697 -465 l258 -6 -49 -80 c-27 -44 -252 -415 -499 -825 -1201
-1989 -1754 -2904 -1757 -2907 -1 -1 -240 47 -531 108 -323 66 -534 114 -540
123 -6 7 -91 151 -190 320 -99 169 -187 311 -196 316 -20 11 -1161 210 -1202
210 -26 -1 -93 -46 -337 -226 -301 -223 -305 -225 -308 -196 -2 16 15 326 38
688 22 362 44 718 48 790 l8 131 380 397 c208 218 383 408 389 422 6 17 6 31
-1 42 -29 45 -48 28 -431 -373 -206 -214 -385 -405 -400 -423 l-25 -32 -54
-851 c-29 -468 -54 -855 -56 -859 -2 -4 -372 73 -823 171 -451 98 -833 178
-850 179 -20 0 -192 -86 -525 -261 -272 -144 -501 -266 -507 -271 -29 -23 -8
-78 29 -78 9 0 239 117 510 260 304 161 501 259 513 257 154 -30 1572 -341
1577 -346 4 -3 -126 -109 -288 -234 -162 -126 -301 -238 -308 -250 -18 -28
-141 -1219 -129 -1241 5 -9 90 -100 189 -203 99 -104 213 -223 253 -265 l73
-77 -37 -518 c-21 -285 -38 -519 -39 -520 -1 -2 -1076 -18 -3846 -58 -943 -14
-2181 -32 -2750 -40 -2686 -39 -3157 -46 -4480 -65 -778 -10 -1502 -21 -1608
-24 -105 -2 -192 -1 -192 3 0 8 3857 6762 3868 6773 15 15 10299 57 12472 51
1152 -3 2211 -8 2353 -12z m7021 -30 l959 -6 1934 -3385 c1063 -1861 1933
-3388 1933 -3393 0 -4 -55 -6 -122 -3 -68 3 -325 8 -573 11 -418 5 -3190 45
-5595 80 -3210 47 -4480 65 -4950 70 -289 4 -535 8 -548 11 -18 4 -46 52 -144
249 -67 134 -120 246 -118 248 3 2 318 101 700 220 382 119 756 236 831 260
l136 44 324 278 c1033 890 1626 1399 1712 1474 54 47 100 94 103 106 3 11 20
520 38 1130 26 849 31 1116 22 1135 -23 51 -49 41 -330 -119 -145 -83 -266
-151 -269 -151 -4 0 126 394 288 876 162 482 295 878 295 880 0 3 1877 -5
3374 -15z m-6649 -33 c-3 -24 -14 -160 -25 -303 -12 -143 -32 -394 -46 -559
-13 -164 -24 -315 -23 -335 2 -27 -9 -54 -43 -111 -25 -41 -200 -338 -388
-660 -189 -322 -532 -907 -763 -1300 -231 -393 -453 -773 -495 -845 -41 -71
-80 -135 -86 -142 -8 -8 -70 46 -238 210 l-228 222 1168 1932 c642 1063 1168
1933 1169 1933 2 0 0 -19 -2 -42z m532 -235 c-6 -11 -1556 -2962 -2101 -4000
-61 -117 -113 -213 -116 -213 -3 1 -43 36 -89 78 l-83 77 167 285 c214 364
253 431 540 920 131 223 268 457 305 520 37 63 206 351 375 640 299 508 815
1388 938 1598 33 56 62 102 64 102 2 0 2 -3 0 -7z m1256 -205 c-4 -7 -165
-188 -358 -403 -193 -214 -432 -481 -531 -592 l-181 -201 -6 -149 c-4 -81 -10
-218 -13 -303 l-7 -155 -424 -192 -425 -192 -276 -20 c-152 -11 -277 -19 -278
-18 -2 2 682 1303 700 1332 7 11 82 62 167 114 85 52 332 204 550 338 l396
243 234 69 c184 55 436 132 457 140 2 0 0 -5 -5 -11z m-424 -971 l233 -160
247 7 c788 19 784 19 779 5 -3 -8 -22 -64 -42 -126 l-37 -111 -602 -343 -602
-342 -140 -137 c-77 -75 -495 -480 -930 -900 -434 -421 -939 -910 -1122 -1087
-182 -178 -335 -323 -340 -323 -4 0 -113 103 -240 228 l-233 227 291 550 c159
303 329 624 376 715 47 91 110 210 139 265 l53 100 388 62 388 62 570 316
c314 174 574 321 579 326 6 5 3 11 -5 14 -8 3 -100 -33 -203 -79 l-188 -85 8
247 c10 365 -11 306 199 540 99 110 185 197 190 194 6 -3 115 -77 244 -165z
m1812 -686 l-16 -545 -415 -285 -415 -285 -451 -53 -452 -52 -221 -150 c-121
-82 -217 -142 -211 -133 5 10 186 295 402 635 l393 617 700 400 c384 220 700
398 701 397 1 -1 -6 -247 -15 -546z m-2351 -115 c0 -2 -39 -26 -87 -52 -49
-26 -243 -134 -433 -239 l-345 -191 -368 -58 c-202 -32 -370 -56 -373 -53 -3
3 7 28 23 56 33 60 5 54 358 77 l250 17 400 182 c220 101 438 201 485 223 99
47 90 43 90 38z m904 -178 c-52 -85 -1068 -1681 -1102 -1731 l-47 -68 -425
-259 c-234 -142 -429 -263 -435 -268 -5 -5 -145 -178 -310 -386 l-299 -377
-114 227 c-62 124 -112 231 -110 238 2 7 154 158 338 337 843 815 1599 1548
1869 1809 161 157 303 292 315 300 19 13 316 187 324 189 2 1 0 -5 -4 -11z
m1426 -350 c1 -141 -24 -914 -29 -924 -3 -6 -316 -279 -696 -605 -379 -327
-848 -730 -1042 -897 l-352 -303 -830 -259 c-457 -143 -833 -260 -836 -260 -3
0 -59 108 -126 241 -106 213 -119 243 -106 258 8 9 147 183 309 387 178 224
308 379 329 391 87 52 691 420 746 454 34 22 66 39 71 39 4 0 83 119 176 264
92 145 175 271 184 279 9 8 123 87 252 174 l235 159 430 48 c237 26 439 49
450 51 11 3 200 128 420 279 220 151 403 275 408 275 4 1 7 -23 7 -51z m-7645
-143 c302 -53 553 -99 556 -103 10 -11 318 -537 324 -554 4 -11 -88 -40 -442
-138 l-448 -124 -250 -185 c-137 -101 -379 -284 -538 -405 l-287 -221 -192
-315 c-105 -173 -216 -355 -246 -403 l-54 -88 -156 163 c-86 90 -190 197 -230
240 l-74 76 56 544 c31 298 58 557 61 574 4 26 50 65 327 280 448 347 999 753
1023 754 10 0 267 -43 570 -95z m1525 -870 l514 -107 219 -211 c178 -172 215
-213 198 -215 -12 -2 -268 13 -569 33 l-547 37 -330 -101 c-181 -55 -523 -159
-759 -230 -327 -99 -434 -135 -452 -153 -17 -18 -706 -1088 -835 -1298 -23
-38 -44 -124 -129 -525 -135 -642 -131 -628 -140 -618 -3 4 -70 126 -148 270
l-141 261 39 541 c21 298 41 544 43 549 2 4 116 191 252 415 l248 408 271 208
c149 115 386 294 527 399 l257 191 463 130 c255 71 473 128 484 126 11 -2 252
-52 535 -110z m195 -595 c925 -63 874 -58 908 -86 17 -14 169 -161 338 -326
l309 -301 614 -1226 613 -1226 -131 -433 -131 -433 -420 -321 c-231 -176 -699
-531 -1040 -787 l-620 -466 -235 -6 c-129 -4 -335 -7 -457 -8 l-223 -1 -472
432 c-260 237 -547 500 -638 583 -91 84 -331 304 -535 489 l-370 338 -222 406
c-122 224 -222 414 -223 422 0 8 57 286 127 617 l127 603 417 652 417 653 728
221 c447 136 746 222 774 223 25 1 180 -8 345 -19z m-3665 -2324 c0 -7 81 16
-4695 -1295 -1023 -281 -1870 -515 -1883 -521 -12 -5 -25 -18 -29 -27 -3 -10
-132 -317 -286 -682 -154 -366 -280 -675 -280 -689 0 -13 9 -32 19 -42 11 -9
215 -160 454 -335 239 -175 583 -426 763 -559 180 -133 336 -247 346 -254 15
-10 73 -10 312 3 162 8 618 30 1014 50 396 19 803 39 905 45 102 5 200 10 218
10 31 0 22 -10 -193 -221 -236 -233 -248 -249 -205 -286 25 -22 2186 -565
2213 -557 26 8 2328 1532 2353 1558 12 11 232 344 489 739 257 395 472 716
476 715 5 -2 492 -445 1084 -985 l1074 -983 1071 -535 c588 -294 1078 -535
1088 -535 11 0 129 83 263 185 134 102 421 319 637 482 279 211 394 303 398
320 4 14 -86 512 -216 1191 l-222 1167 -504 1007 c-277 554 -504 1011 -504
1014 0 4 206 4 458 0 251 -3 1384 -20 2517 -36 1133 -16 2524 -37 3090 -45
567 -8 1350 -19 1740 -25 391 -5 832 -12 980 -15 149 -3 806 -12 1460 -20 655
-9 1263 -19 1352 -23 l163 -7 -279 -475 c-152 -261 -603 -1031 -1001 -1710
-398 -679 -1030 -1759 -1405 -2400 -375 -641 -810 -1383 -967 -1650 l-284
-485 -5672 -8 c-3120 -4 -8224 -4 -11344 0 l-5672 8 -284 485 c-157 267 -592
1009 -967 1650 -375 641 -1007 1721 -1405 2400 -398 679 -849 1449 -1001 1710
l-279 475 163 7 c89 4 697 14 1352 23 655 8 1312 17 1460 20 149 3 590 10 980
15 391 6 1174 17 1740 25 1577 23 5060 73 5900 85 763 11 941 14 1008 18 20 1
37 0 37 -2z m441 -326 c82 -151 145 -276 141 -277 -4 -2 -230 -61 -502 -132
-599 -156 -1666 -434 -2380 -621 -289 -75 -529 -134 -535 -130 -9 7 -510 108
-1047 211 -90 17 -166 34 -170 38 -4 3 115 39 265 80 150 41 1118 308 2152
592 1034 285 1891 517 1904 516 20 -2 45 -43 172 -277z m217 -401 c30 -55 51
-103 48 -107 -8 -8 -4617 -982 -4634 -979 -7 1 364 100 825 220 461 120 1482
386 2268 592 787 205 1432 374 1435 374 3 0 29 -45 58 -100z m231 -425 c123
-228 151 -288 140 -295 -8 -5 -693 -403 -1524 -885 l-1510 -876 -290 -287
c-159 -157 -382 -377 -495 -487 l-205 -202 -125 -5 c-69 -3 -127 -4 -128 -2
-4 4 277 932 289 957 6 11 -21 105 -86 299 -52 155 -94 283 -92 284 1 1 113
56 248 122 l247 121 258 -64 c143 -35 269 -66 282 -69 21 -5 17 -13 -61 -103
-183 -213 -209 -249 -174 -240 6 2 220 212 474 469 l462 465 164 354 163 353
880 188 c483 103 890 187 904 188 23 1 39 -25 179 -285z m5902 -367 c232 -462
251 -502 238 -522 -8 -12 -88 -117 -177 -232 l-164 -211 -86 -16 c-48 -9 -348
-68 -667 -131 -564 -111 -581 -115 -603 -142 -13 -16 -158 -293 -322 -617
l-298 -588 -267 -109 -268 -108 -36 31 c-20 18 -213 194 -430 392 l-395 361
80 5 c43 3 215 7 382 8 166 1 317 5 335 9 17 3 48 19 67 34 19 15 269 202 555
416 626 469 1502 1137 1530 1167 13 14 61 159 135 404 97 325 116 381 127 366
7 -9 126 -242 264 -517z m-10289 141 c383 -75 619 -126 607 -130 -32 -12
-1638 -429 -1657 -430 -16 -1 -921 286 -950 301 -11 7 1308 377 1353 380 11 1
302 -54 647 -121z m2354 50 c-18 -40 -88 -192 -156 -338 l-122 -265 -355 -360
c-196 -198 -331 -331 -301 -295 30 36 128 152 219 259 90 107 193 229 229 272
36 42 98 115 138 162 39 46 72 90 72 96 0 7 41 127 92 266 l91 254 41 10 c90
20 90 20 52 -61z m-126 40 c0 -2 -43 -120 -94 -262 l-93 -259 -302 -357 -302
-357 -280 69 c-155 37 -290 68 -300 68 -11 0 -340 -158 -731 -350 -392 -193
-715 -349 -719 -348 -3 2 79 136 183 298 103 162 189 297 190 300 5 11 953
882 964 887 14 5 1455 311 1472 312 6 1 12 0 12 -1z m2566 -420 l187 -172 -29
-12 c-16 -7 -217 -91 -447 -187 l-419 -175 -377 -348 -378 -349 -1012 -303
c-557 -167 -1015 -302 -1017 -300 -2 3 56 63 129 134 l132 129 685 397 c377
219 1056 613 1510 877 454 264 830 480 837 481 6 0 96 -77 199 -172z m-4174
34 c-40 -37 -247 -227 -460 -422 l-387 -355 -210 -328 c-116 -180 -282 -440
-370 -577 l-160 -250 -525 -351 c-351 -234 -532 -349 -545 -346 -18 3 -1519
1097 -1513 1102 2 2 262 103 578 225 316 122 577 225 580 229 5 7 243 145 960
558 l365 211 750 157 c413 87 806 170 875 185 69 16 127 28 130 29 3 0 -28
-30 -68 -67z m-2200 -129 c375 -121 484 -159 471 -167 -18 -9 -356 -204 -998
-575 -293 -170 -364 -206 -510 -263 -697 -271 -927 -359 -929 -356 -2 1 116
282 260 623 145 341 264 623 266 627 2 6 909 263 942 267 5 0 229 -70 498
-156z m1125 -19 c-3 -3 -12 -4 -19 -1 -8 3 -5 6 6 6 11 1 17 -2 13 -5z m5662
-263 c105 -95 191 -178 191 -183 0 -5 -214 -336 -475 -736 -340 -521 -484
-733 -507 -749 -18 -12 -536 -354 -1151 -761 l-1117 -739 -481 120 c-264 66
-478 121 -477 122 2 2 174 145 383 319 l379 317 172 420 c94 231 173 421 175
422 13 8 196 161 254 212 194 170 177 161 504 259 l293 88 372 346 372 345
445 188 c244 103 451 187 460 186 9 -1 103 -80 208 -176z m5466 -561 c47 -250
87 -462 89 -471 3 -13 -56 -30 -338 -99 -951 -230 -1031 -251 -1047 -268 -9
-9 -169 -287 -354 -617 -186 -330 -340 -602 -342 -605 -5 -5 -883 432 -883
441 0 3 104 48 232 100 127 51 240 101 249 109 10 8 153 283 319 610 167 327
307 598 313 601 5 4 46 14 91 22 617 120 1215 239 1231 246 11 5 92 101 180
214 121 154 162 201 167 188 4 -9 46 -221 93 -471z m-10249 -293 l91 -273
-150 -490 c-83 -269 -151 -490 -152 -491 -1 -3 -524 -29 -1420 -73 -341 -16
-651 -32 -690 -35 l-70 -6 515 346 515 345 150 236 150 237 480 238 c264 130
482 238 485 238 3 1 46 -122 96 -272z m2227 -262 c-27 -22 -270 -227 -353
-299 -18 -16 -76 -145 -198 -441 l-173 -420 -386 -320 c-212 -176 -392 -319
-400 -318 -34 3 -1043 258 -1043 263 0 5 697 693 1016 1003 l132 128 708 213
c390 118 714 214 719 215 6 0 -4 -11 -22 -24z m8165 -192 c16 -87 28 -160 26
-162 -2 -2 -257 -67 -566 -143 -310 -77 -576 -148 -593 -158 -23 -14 -100
-140 -324 -533 l-295 -515 -143 71 c-108 54 -142 76 -138 87 9 22 635 1131
656 1160 16 23 76 39 676 187 362 88 661 162 664 162 4 1 20 -70 37 -156z m52
-277 c0 -3 30 -159 66 -347 63 -329 65 -343 47 -359 -10 -10 -189 -146 -398
-303 -209 -158 -469 -354 -577 -437 -109 -82 -203 -150 -210 -149 -7 0 -153
71 -325 157 l-312 157 284 495 c157 272 286 499 288 504 3 9 1080 283 1120
285 9 1 17 -1 17 -3z m6526 -3390 c-26 -45 -1411 -2412 -2008 -3431 -206 -352
-640 -1092 -963 -1645 -324 -553 -647 -1106 -720 -1230 l-132 -225 -574 -2
c-316 -1 -1988 5 -3717 15 -2985 16 -3299 16 -6285 0 -1728 -10 -3400 -16
-3716 -15 l-574 2 -132 225 c-73 124 -396 677 -720 1230 -323 553 -757 1293
-963 1645 -597 1019 -1982 3386 -2008 3431 l-24 41 11280 0 11280 0 -24 -41z"/>
<path d="M31210 16755 c0 -8 5 -15 10 -15 6 0 10 7 10 15 0 8 -4 15 -10 15 -5
0 -10 -7 -10 -15z"/>
<path d="M14480 4096 c0 -9 5 -16 10 -16 6 0 10 4 10 9 0 6 -4 13 -10 16 -5 3
-10 -1 -10 -9z"/>
</g>
</svg>
